<svg
  transform="scale(-1,1)"
  width="1440"
  height="742"
  viewBox="0 0 1440 742"
  fill="none"
  xmlns="http://www.w3.org/2000/svg"
>
  <g clip-path="url(#clip0)">
    <path
      d="M266.69 452.555C306.69 435.699 331.98 414.83 337.9 387.249C344.04 358.654 324.4 332.906 358.2 307.403C381.72 289.664 419.03 283.744 453.5 275.233C506.31 262.197 556.85 239.938 573.23 207.678C585.13 184.247 578.02 159.29 593.7 136.428C622.53 94.4215 687.04 85.5238 760.51 88.2734C836.96 91.1198 907.12 85.8085 969.28 58.6201C1008.86 41.3143 1036.57 16.5966 1073.01 -2.66187C1130.78 -33.1975 1209.11 -50.7595 1287.88 -50.8392C1351.69 -50.9019 1414.79 -39.989 1478.46 -42.3856C1542.13 -44.7822 1611.4 -160.947 1618 -197.136L4 -233L66.6001 470.908C133.27 483.415 210.25 476.356 266.69 452.555Z"
      fill="#EAF1F1"
    />
    <path
      d="M831.624 -33.944C807.55 -0.602254 777.586 20.5941 737.807 25.8135C696.566 31.2268 659.267 15.2423 622.669 43.5438C597.214 63.2376 588.91 94.2259 576.849 122.89C558.373 166.805 526.569 208.943 480.102 222.884C446.353 233.012 410.278 227.403 377.375 240.658C316.92 265.028 304.495 318.592 308.944 379.45C313.551 442.776 306.341 500.982 267.495 552.806C242.77 585.805 207.266 609.051 179.701 639.469C135.995 687.693 111.152 752.809 111.55 818.092C111.876 870.976 128.041 923.146 124.996 975.941C121.951 1028.73 -45.3 1087.46 -97.5009 1093.34L-159.796 -243.867L856.815 -199.979C875.305 -144.867 865.616 -80.9893 831.624 -33.944Z"
      fill="#12115A"
    />
    <path
      d="M-108.63 790C-115.174 693.63 -28.8159 649.731 43.2944 608.919C94.8786 579.714 135.51 532.788 158.757 478.431C184.257 418.797 171.645 353.529 196.715 294.684C225.136 227.978 305.712 214.027 368.506 198.165C434.011 181.617 496.436 159.745 535.852 101.082C584.22 29.1541 594.504 -80.3769 541.985 -153L-188 -152.454V790H-108.63Z"
      fill="#1B1A6D"
    />
    <path
      d="M602.858 758.226C582.828 726.097 563.21 693.433 535.439 668.016C495.415 631.384 438.931 625.012 386.987 628.292C339.693 631.282 290.675 637.387 246.088 621.413C206.745 607.336 174.469 576.648 154.439 539.972C119.716 476.482 130.969 408.018 121.534 339.271C108.977 247.83 24.7794 175.361 -69.7084 184.84C-102.259 188.098 -133.934 200.437 -166.622 198.931C-219.804 196.483 -265.607 150.908 -274.775 99.3584L-276.462 870.34H719.07V846.517C719.07 850.861 676.577 840.485 672.514 838.617C657.944 831.912 646.59 820.84 636.814 808.342C624.496 792.592 613.59 775.489 602.858 758.226Z"
      fill="#CCF5DF"
    />
    <path
      d="M602.858 758.226C582.828 726.097 563.211 693.433 535.439 668.016C495.415 631.384 438.931 625.012 386.987 628.292C339.693 631.282 290.675 637.387 246.088 621.413C206.745 607.336 174.469 576.648 154.439 539.972C119.716 476.482 130.969 408.018 121.534 339.271C108.977 247.83 24.7794 175.361 -69.7084 184.84C-102.259 188.098 -133.934 200.437 -166.622 198.931C-219.804 196.483 -265.607 150.908 -274.775 99.3584L-276.462 870.34H719.07V846.517C719.07 850.861 676.577 840.485 672.514 838.617C657.944 831.912 646.59 820.84 636.814 808.342C624.496 792.592 613.59 775.489 602.858 758.226Z"
      fill="#CCF5DF"
    />
    <path
      d="M626.624 770.797C626.624 770.797 594.037 648.423 512.208 619.458C430.378 590.494 288.821 611.746 218.201 557.185C122.613 483.326 244.995 202.371 -38.874 153.855"
      stroke="#CCF5DF"
      stroke-width="2"
      stroke-miterlimit="10"
    />
    <path
      d="M1108.06 80.8651L1167.21 45.3402C1159.76 32.9225 1157.54 18.0511 1161.04 3.99748C1164.55 -10.0561 1173.5 -22.1408 1185.92 -29.5979C1198.34 -37.0551 1213.21 -39.2739 1227.26 -35.7662C1241.32 -32.2586 1253.4 -23.3118 1260.86 -10.8942L1320 -46.3755C1284.88 -104.826 1208.84 -123.805 1150.4 -88.7215C1091.95 -53.6384 1072.98 22.4439 1108.06 80.8651Z"
      stroke="white"
      stroke-width="2"
      stroke-miterlimit="10"
    />
    <path
      d="M1200.03 675.772C1199.27 675.772 1198.53 675.547 1197.9 675.126C1197.27 674.705 1196.78 674.106 1196.49 673.406C1196.2 672.705 1196.13 671.935 1196.28 671.191C1196.42 670.448 1196.79 669.766 1197.33 669.23C1197.86 668.695 1198.55 668.331 1199.29 668.184C1200.03 668.037 1200.8 668.113 1201.5 668.405C1202.2 668.696 1202.8 669.188 1203.22 669.819C1203.64 670.449 1203.87 671.191 1203.86 671.949C1203.86 672.963 1203.46 673.936 1202.74 674.653C1202.02 675.369 1201.05 675.772 1200.03 675.772ZM1200.03 669.385C1199.53 669.385 1199.03 669.536 1198.61 669.817C1198.19 670.099 1197.86 670.499 1197.66 670.968C1197.47 671.436 1197.42 671.951 1197.52 672.449C1197.62 672.946 1197.86 673.403 1198.22 673.761C1198.58 674.12 1199.04 674.364 1199.53 674.463C1200.03 674.562 1200.55 674.511 1201.01 674.317C1201.48 674.123 1201.88 673.794 1202.16 673.373C1202.45 672.951 1202.6 672.456 1202.6 671.949C1202.59 671.275 1202.31 670.632 1201.83 670.159C1201.35 669.687 1200.71 669.421 1200.03 669.421V669.385Z"
      fill="white"
    />
    <path
      d="M1221.72 675.772C1220.96 675.773 1220.22 675.55 1219.59 675.129C1218.96 674.709 1218.47 674.111 1218.18 673.411C1217.88 672.71 1217.81 671.94 1217.96 671.196C1218.1 670.452 1218.47 669.769 1219 669.233C1219.54 668.697 1220.22 668.332 1220.97 668.184C1221.71 668.037 1222.48 668.113 1223.18 668.404C1223.88 668.695 1224.48 669.187 1224.9 669.818C1225.32 670.449 1225.55 671.19 1225.54 671.949C1225.54 672.962 1225.14 673.933 1224.42 674.65C1223.71 675.367 1222.73 675.77 1221.72 675.772ZM1221.72 669.385C1221.21 669.384 1220.72 669.533 1220.29 669.814C1219.87 670.095 1219.54 670.494 1219.35 670.963C1219.15 671.431 1219.1 671.947 1219.2 672.444C1219.3 672.942 1219.54 673.399 1219.9 673.759C1220.26 674.118 1220.71 674.363 1221.21 674.462C1221.71 674.562 1222.22 674.511 1222.69 674.317C1223.16 674.124 1223.56 673.795 1223.84 673.373C1224.13 672.952 1224.28 672.456 1224.28 671.949C1224.27 671.277 1223.99 670.636 1223.51 670.164C1223.04 669.692 1222.39 669.425 1221.72 669.421V669.385Z"
      fill="white"
    />
    <path
      d="M1243.4 675.772C1242.64 675.773 1241.9 675.55 1241.27 675.129C1240.64 674.709 1240.15 674.111 1239.86 673.411C1239.57 672.71 1239.49 671.94 1239.64 671.196C1239.79 670.452 1240.15 669.769 1240.69 669.233C1241.22 668.697 1241.91 668.332 1242.65 668.184C1243.39 668.037 1244.16 668.113 1244.86 668.404C1245.56 668.695 1246.16 669.187 1246.58 669.818C1247 670.449 1247.23 671.19 1247.23 671.949C1247.22 672.962 1246.82 673.933 1246.1 674.65C1245.39 675.367 1244.42 675.77 1243.4 675.772ZM1243.4 669.385C1242.9 669.384 1242.4 669.533 1241.98 669.814C1241.55 670.095 1241.22 670.494 1241.03 670.963C1240.83 671.431 1240.78 671.947 1240.88 672.444C1240.98 672.942 1241.22 673.399 1241.58 673.759C1241.94 674.118 1242.4 674.363 1242.89 674.462C1243.39 674.562 1243.91 674.511 1244.37 674.317C1244.84 674.124 1245.24 673.795 1245.53 673.373C1245.81 672.952 1245.96 672.456 1245.96 671.949C1245.95 671.277 1245.67 670.636 1245.2 670.164C1244.72 669.692 1244.07 669.425 1243.4 669.421V669.385Z"
      fill="white"
    />
    <path
      d="M1200.03 697.452C1199.27 697.452 1198.53 697.227 1197.9 696.806C1197.27 696.385 1196.78 695.786 1196.49 695.086C1196.2 694.385 1196.13 693.615 1196.28 692.872C1196.42 692.128 1196.79 691.446 1197.33 690.91C1197.86 690.375 1198.55 690.011 1199.29 689.864C1200.03 689.717 1200.8 689.794 1201.5 690.085C1202.2 690.376 1202.8 690.868 1203.22 691.499C1203.64 692.13 1203.86 692.871 1203.86 693.629C1203.86 694.643 1203.46 695.616 1202.74 696.333C1202.02 697.049 1201.05 697.452 1200.03 697.452ZM1200.03 691.065C1199.53 691.065 1199.03 691.216 1198.61 691.497C1198.19 691.779 1197.86 692.179 1197.66 692.648C1197.47 693.116 1197.42 693.632 1197.52 694.129C1197.62 694.626 1197.86 695.083 1198.22 695.441C1198.58 695.8 1199.04 696.044 1199.53 696.143C1200.03 696.242 1200.55 696.191 1201.01 695.997C1201.48 695.803 1201.88 695.474 1202.16 695.053C1202.45 694.631 1202.6 694.136 1202.6 693.629C1202.6 692.949 1202.33 692.297 1201.85 691.816C1201.36 691.335 1200.71 691.065 1200.03 691.065Z"
      fill="white"
    />
    <path
      d="M1221.72 697.452C1220.96 697.453 1220.22 697.23 1219.59 696.809C1218.96 696.389 1218.47 695.791 1218.18 695.091C1217.88 694.391 1217.81 693.62 1217.96 692.876C1218.1 692.132 1218.47 691.449 1219 690.913C1219.54 690.377 1220.22 690.012 1220.97 689.864C1221.71 689.717 1222.48 689.793 1223.18 690.084C1223.88 690.375 1224.48 690.867 1224.9 691.498C1225.32 692.129 1225.55 692.871 1225.54 693.629C1225.54 694.642 1225.14 695.613 1224.42 696.33C1223.71 697.047 1222.73 697.45 1221.72 697.452ZM1221.72 691.065C1221.21 691.064 1220.72 691.213 1220.29 691.494C1219.87 691.775 1219.54 692.175 1219.35 692.643C1219.15 693.111 1219.1 693.627 1219.2 694.124C1219.3 694.622 1219.54 695.08 1219.9 695.439C1220.26 695.798 1220.71 696.043 1221.21 696.142C1221.71 696.242 1222.22 696.191 1222.69 695.998C1223.16 695.804 1223.56 695.475 1223.84 695.054C1224.13 694.632 1224.28 694.136 1224.28 693.629C1224.28 692.951 1224.01 692.301 1223.53 691.821C1223.05 691.341 1222.4 691.069 1221.72 691.065Z"
      fill="white"
    />
    <path
      d="M1243.4 697.452C1242.64 697.453 1241.9 697.23 1241.27 696.809C1240.64 696.389 1240.15 695.791 1239.86 695.091C1239.57 694.391 1239.49 693.62 1239.64 692.876C1239.79 692.132 1240.15 691.449 1240.69 690.913C1241.22 690.377 1241.91 690.012 1242.65 689.864C1243.39 689.717 1244.16 689.793 1244.86 690.084C1245.56 690.375 1246.16 690.867 1246.58 691.498C1247 692.129 1247.23 692.871 1247.23 693.629C1247.22 694.642 1246.82 695.613 1246.1 696.33C1245.39 697.047 1244.42 697.45 1243.4 697.452ZM1243.4 691.065C1242.9 691.064 1242.4 691.213 1241.98 691.494C1241.55 691.775 1241.22 692.175 1241.03 692.643C1240.83 693.111 1240.78 693.627 1240.88 694.124C1240.98 694.622 1241.22 695.08 1241.58 695.439C1241.94 695.798 1242.4 696.043 1242.89 696.142C1243.39 696.242 1243.91 696.191 1244.37 695.998C1244.84 695.804 1245.24 695.475 1245.53 695.054C1245.81 694.632 1245.96 694.136 1245.96 693.629C1245.96 692.951 1245.69 692.301 1245.21 691.821C1244.73 691.341 1244.08 691.069 1243.4 691.065Z"
      fill="white"
    />
    <path
      d="M302.2 335.612L294.959 342.852L302.2 350.092L309.44 342.852L302.2 335.612Z"
      fill="white"
    />
    <path
      d="M322.481 379.057L302.931 398.606L322.481 418.156L342.031 398.606L322.481 379.057Z"
      fill="#CCF5DF"
    />
    <path
      d="M306.4 643.3C306.4 644.15 306.652 644.982 307.125 645.689C307.597 646.396 308.269 646.947 309.054 647.273C309.84 647.598 310.705 647.683 311.539 647.517C312.373 647.351 313.139 646.942 313.741 646.341C314.342 645.739 314.751 644.973 314.917 644.139C315.083 643.305 314.998 642.44 314.673 641.654C314.347 640.869 313.796 640.197 313.089 639.725C312.382 639.252 311.55 639 310.7 639C310.135 638.999 309.575 639.109 309.053 639.325C308.531 639.54 308.056 639.857 307.656 640.257C307.257 640.656 306.94 641.131 306.725 641.653C306.509 642.175 306.399 642.735 306.4 643.3Z"
      fill="white"
    />
    <path
      d="M277.26 643.3C277.262 644.148 277.515 644.976 277.988 645.681C278.46 646.385 279.131 646.933 279.915 647.256C280.699 647.579 281.561 647.663 282.393 647.496C283.224 647.33 283.988 646.92 284.587 646.32C285.186 645.72 285.593 644.955 285.758 644.123C285.923 643.291 285.837 642.429 285.512 641.646C285.187 640.863 284.637 640.193 283.932 639.722C283.227 639.251 282.398 639 281.55 639C280.986 639 280.427 639.111 279.906 639.328C279.385 639.544 278.911 639.861 278.513 640.26C278.114 640.659 277.799 641.134 277.584 641.655C277.369 642.177 277.259 642.736 277.26 643.3Z"
      fill="white"
    />
    <path
      d="M248.13 643.3C248.13 644.151 248.382 644.983 248.855 645.69C249.328 646.397 250 646.948 250.787 647.274C251.573 647.599 252.438 647.683 253.273 647.517C254.107 647.35 254.873 646.939 255.474 646.337C256.075 645.735 256.484 644.968 256.649 644.133C256.813 643.298 256.727 642.433 256.4 641.648C256.073 640.862 255.52 640.191 254.812 639.72C254.103 639.249 253.271 638.998 252.42 639C251.856 639 251.297 639.111 250.776 639.328C250.255 639.544 249.781 639.861 249.383 640.26C248.984 640.659 248.669 641.134 248.454 641.655C248.239 642.177 248.129 642.736 248.13 643.3Z"
      fill="white"
    />
    <path
      d="M218.97 643.3C218.972 644.148 219.225 644.976 219.698 645.681C220.17 646.385 220.841 646.933 221.625 647.256C222.409 647.579 223.271 647.663 224.103 647.496C224.934 647.33 225.698 646.92 226.297 646.32C226.896 645.72 227.303 644.955 227.468 644.123C227.633 643.291 227.547 642.429 227.222 641.646C226.897 640.863 226.347 640.193 225.642 639.722C224.937 639.251 224.108 639 223.26 639C222.696 639 222.137 639.111 221.616 639.328C221.095 639.544 220.621 639.861 220.223 640.26C219.824 640.659 219.509 641.134 219.294 641.655C219.079 642.177 218.968 642.736 218.97 643.3Z"
      fill="white"
    />
    <path
      d="M189.82 643.3C189.82 644.151 190.072 644.983 190.545 645.69C191.018 646.397 191.69 646.948 192.477 647.274C193.263 647.599 194.128 647.683 194.962 647.517C195.797 647.35 196.563 646.939 197.164 646.337C197.765 645.735 198.174 644.968 198.339 644.133C198.503 643.298 198.417 642.433 198.09 641.648C197.763 640.862 197.21 640.191 196.502 639.72C195.793 639.249 194.961 638.998 194.11 639C193.546 639 192.987 639.111 192.466 639.328C191.945 639.544 191.471 639.861 191.073 640.26C190.674 640.659 190.359 641.134 190.144 641.655C189.929 642.177 189.819 642.736 189.82 643.3Z"
      fill="white"
    />
    <path
      d="M160.68 643.3C160.682 644.148 160.935 644.976 161.408 645.681C161.88 646.385 162.551 646.933 163.335 647.256C164.119 647.579 164.981 647.663 165.813 647.496C166.644 647.33 167.408 646.92 168.007 646.32C168.606 645.72 169.013 644.955 169.178 644.123C169.343 643.291 169.257 642.429 168.932 641.646C168.607 640.863 168.057 640.193 167.352 639.722C166.647 639.251 165.818 639 164.97 639C164.405 639 163.847 639.111 163.326 639.328C162.805 639.544 162.331 639.861 161.933 640.26C161.534 640.659 161.218 641.134 161.003 641.655C160.788 642.177 160.678 642.736 160.68 643.3Z"
      fill="white"
    />
    <path
      d="M131.53 643.3C131.53 644.151 131.782 644.983 132.255 645.69C132.728 646.397 133.4 646.948 134.187 647.274C134.973 647.599 135.838 647.683 136.672 647.517C137.507 647.35 138.273 646.939 138.874 646.337C139.475 645.735 139.884 644.968 140.048 644.133C140.213 643.298 140.127 642.433 139.8 641.648C139.473 640.862 138.92 640.191 138.212 639.72C137.503 639.249 136.671 638.998 135.82 639C135.256 639 134.697 639.111 134.176 639.328C133.655 639.544 133.181 639.861 132.783 640.26C132.384 640.659 132.069 641.134 131.854 641.655C131.639 642.177 131.529 642.736 131.53 643.3Z"
      fill="white"
    />
    <path
      d="M306.4 672.44C306.398 673.291 306.649 674.123 307.12 674.832C307.591 675.54 308.262 676.093 309.048 676.42C309.833 676.747 310.698 676.833 311.533 676.669C312.368 676.504 313.135 676.095 313.737 675.494C314.339 674.893 314.75 674.127 314.917 673.292C315.083 672.458 314.999 671.593 314.674 670.807C314.348 670.02 313.797 669.348 313.09 668.875C312.383 668.402 311.551 668.15 310.7 668.15C310.136 668.149 309.577 668.259 309.055 668.474C308.534 668.689 308.059 669.004 307.66 669.403C307.261 669.801 306.944 670.275 306.728 670.796C306.511 671.317 306.4 671.876 306.4 672.44Z"
      fill="white"
    />
    <path
      d="M277.26 672.44C277.26 673.288 277.511 674.118 277.983 674.823C278.454 675.529 279.124 676.079 279.908 676.403C280.692 676.728 281.555 676.813 282.387 676.647C283.219 676.482 283.983 676.073 284.583 675.473C285.183 674.873 285.592 674.109 285.757 673.277C285.923 672.445 285.838 671.582 285.513 670.798C285.189 670.014 284.639 669.344 283.933 668.873C283.228 668.402 282.398 668.15 281.55 668.15C280.412 668.15 279.321 668.602 278.516 669.406C277.712 670.211 277.26 671.302 277.26 672.44Z"
      fill="white"
    />
    <path
      d="M248.13 672.44C248.128 673.291 248.379 674.124 248.85 674.833C249.322 675.541 249.994 676.094 250.78 676.421C251.566 676.747 252.431 676.833 253.266 676.668C254.102 676.502 254.869 676.092 255.471 675.49C256.073 674.888 256.482 674.121 256.648 673.286C256.813 672.451 256.727 671.586 256.401 670.8C256.074 670.014 255.521 669.342 254.813 668.87C254.104 668.399 253.271 668.148 252.42 668.15C251.282 668.15 250.191 668.602 249.386 669.406C248.582 670.211 248.13 671.302 248.13 672.44Z"
      fill="white"
    />
    <path
      d="M218.97 672.44C218.97 673.288 219.221 674.118 219.693 674.823C220.164 675.529 220.834 676.079 221.618 676.403C222.402 676.728 223.265 676.813 224.097 676.647C224.929 676.482 225.693 676.073 226.293 675.473C226.893 674.873 227.302 674.109 227.467 673.277C227.633 672.445 227.548 671.582 227.223 670.798C226.899 670.014 226.349 669.344 225.643 668.873C224.938 668.402 224.108 668.15 223.26 668.15C222.122 668.15 221.031 668.602 220.226 669.406C219.422 670.211 218.97 671.302 218.97 672.44Z"
      fill="white"
    />
    <path
      d="M189.82 672.44C189.814 673.291 190.061 674.125 190.529 674.836C190.998 675.547 191.667 676.103 192.451 676.433C193.236 676.763 194.101 676.853 194.937 676.692C195.772 676.53 196.541 676.124 197.146 675.525C197.751 674.926 198.164 674.16 198.334 673.326C198.503 672.492 198.421 671.626 198.098 670.838C197.775 670.051 197.226 669.377 196.519 668.902C195.813 668.427 194.981 668.172 194.13 668.17C193.567 668.167 193.008 668.276 192.487 668.489C191.965 668.702 191.491 669.016 191.091 669.412C190.69 669.809 190.372 670.28 190.154 670.8C189.936 671.319 189.823 671.877 189.82 672.44Z"
      fill="white"
    />
    <path
      d="M160.68 672.44C160.68 673.288 160.931 674.118 161.403 674.823C161.874 675.529 162.544 676.079 163.328 676.403C164.112 676.728 164.974 676.813 165.807 676.647C166.639 676.482 167.403 676.073 168.003 675.473C168.603 674.873 169.012 674.109 169.177 673.277C169.343 672.445 169.258 671.582 168.933 670.798C168.608 670.014 168.059 669.344 167.353 668.873C166.648 668.402 165.818 668.15 164.97 668.15C163.832 668.15 162.741 668.602 161.936 669.406C161.132 670.211 160.68 671.302 160.68 672.44Z"
      fill="white"
    />
    <path
      d="M131.53 672.44C131.528 673.291 131.779 674.124 132.25 674.833C132.722 675.541 133.394 676.094 134.18 676.421C134.966 676.747 135.831 676.833 136.666 676.668C137.501 676.502 138.269 676.092 138.87 675.49C139.472 674.888 139.882 674.121 140.048 673.286C140.213 672.451 140.127 671.586 139.801 670.8C139.474 670.014 138.921 669.342 138.213 668.87C137.504 668.399 136.671 668.148 135.82 668.15C134.682 668.15 133.591 668.602 132.786 669.406C131.982 670.211 131.53 671.302 131.53 672.44Z"
      fill="white"
    />
    <path
      d="M306.4 701.59C306.4 702.441 306.652 703.272 307.125 703.979C307.597 704.686 308.269 705.237 309.054 705.563C309.84 705.888 310.705 705.973 311.539 705.807C312.373 705.642 313.139 705.232 313.741 704.631C314.342 704.029 314.751 703.263 314.917 702.429C315.083 701.595 314.998 700.73 314.673 699.945C314.347 699.159 313.796 698.487 313.089 698.015C312.382 697.542 311.55 697.29 310.7 697.29C310.135 697.289 309.575 697.399 309.053 697.615C308.531 697.83 308.056 698.147 307.656 698.547C307.257 698.946 306.94 699.421 306.725 699.943C306.509 700.465 306.399 701.025 306.4 701.59Z"
      fill="white"
    />
    <path
      d="M277.26 701.59C277.262 702.438 277.515 703.267 277.988 703.971C278.46 704.675 279.131 705.223 279.915 705.546C280.699 705.87 281.561 705.953 282.393 705.786C283.224 705.62 283.988 705.21 284.587 704.61C285.186 704.01 285.593 703.245 285.758 702.413C285.923 701.581 285.837 700.719 285.512 699.936C285.187 699.153 284.637 698.483 283.932 698.012C283.227 697.541 282.398 697.29 281.55 697.29C280.986 697.29 280.427 697.401 279.906 697.618C279.385 697.834 278.911 698.151 278.513 698.55C278.114 698.95 277.799 699.424 277.584 699.945C277.369 700.467 277.259 701.026 277.26 701.59Z"
      fill="white"
    />
    <path
      d="M248.13 701.59C248.13 702.441 248.382 703.273 248.855 703.98C249.328 704.687 250 705.239 250.787 705.564C251.573 705.889 252.438 705.973 253.273 705.807C254.107 705.64 254.873 705.229 255.474 704.627C256.075 704.025 256.484 703.258 256.649 702.423C256.813 701.588 256.727 700.723 256.4 699.938C256.073 699.152 255.52 698.481 254.812 698.01C254.103 697.539 253.271 697.288 252.42 697.29C251.856 697.29 251.297 697.401 250.776 697.618C250.255 697.834 249.781 698.151 249.383 698.55C248.984 698.95 248.669 699.424 248.454 699.945C248.239 700.467 248.129 701.026 248.13 701.59Z"
      fill="white"
    />
    <path
      d="M218.97 701.59C218.972 702.438 219.225 703.267 219.698 703.971C220.17 704.675 220.841 705.223 221.625 705.546C222.409 705.87 223.271 705.953 224.103 705.786C224.934 705.62 225.698 705.21 226.297 704.61C226.896 704.01 227.303 703.245 227.468 702.413C227.633 701.581 227.547 700.719 227.222 699.936C226.897 699.153 226.347 698.483 225.642 698.012C224.937 697.541 224.108 697.29 223.26 697.29C222.696 697.29 222.137 697.401 221.616 697.618C221.095 697.834 220.621 698.151 220.223 698.55C219.824 698.95 219.509 699.424 219.294 699.945C219.079 700.467 218.968 701.026 218.97 701.59Z"
      fill="white"
    />
    <path
      d="M194.12 705.88C191.751 705.88 189.83 703.959 189.83 701.59C189.83 699.221 191.751 697.3 194.12 697.3C196.489 697.3 198.41 699.221 198.41 701.59C198.41 703.959 196.489 705.88 194.12 705.88Z"
      fill="white"
    />
    <path
      d="M160.68 701.59C160.682 702.438 160.935 703.267 161.408 703.971C161.88 704.675 162.551 705.223 163.335 705.546C164.119 705.87 164.981 705.953 165.813 705.786C166.644 705.62 167.408 705.21 168.007 704.61C168.606 704.01 169.013 703.245 169.178 702.413C169.343 701.581 169.257 700.719 168.932 699.936C168.607 699.153 168.057 698.483 167.352 698.012C166.647 697.541 165.818 697.29 164.97 697.29C164.405 697.29 163.847 697.401 163.326 697.618C162.805 697.834 162.331 698.151 161.933 698.55C161.534 698.95 161.218 699.424 161.003 699.945C160.788 700.467 160.678 701.026 160.68 701.59Z"
      fill="white"
    />
    <path
      d="M131.53 701.59C131.53 702.441 131.782 703.273 132.255 703.98C132.728 704.687 133.4 705.239 134.187 705.564C134.973 705.889 135.838 705.973 136.672 705.807C137.507 705.64 138.273 705.229 138.874 704.627C139.475 704.025 139.884 703.258 140.048 702.423C140.213 701.588 140.127 700.723 139.8 699.938C139.473 699.152 138.92 698.481 138.212 698.01C137.503 697.539 136.671 697.288 135.82 697.29C135.256 697.29 134.697 697.401 134.176 697.618C133.655 697.834 133.181 698.151 132.783 698.55C132.384 698.95 132.069 699.424 131.854 699.945C131.639 700.467 131.529 701.026 131.53 701.59Z"
      fill="white"
    />
    <path
      d="M306.4 730.73C306.398 731.581 306.649 732.413 307.12 733.122C307.591 733.83 308.262 734.383 309.048 734.71C309.833 735.037 310.698 735.123 311.533 734.959C312.368 734.794 313.135 734.385 313.737 733.784C314.339 733.183 314.75 732.417 314.917 731.583C315.083 730.748 314.999 729.883 314.674 729.097C314.348 728.31 313.797 727.638 313.09 727.165C312.383 726.692 311.551 726.44 310.7 726.44C310.136 726.439 309.577 726.549 309.055 726.764C308.534 726.979 308.059 727.294 307.66 727.693C307.261 728.091 306.944 728.565 306.728 729.086C306.511 729.607 306.4 730.166 306.4 730.73Z"
      fill="white"
    />
    <path
      d="M277.26 730.73C277.26 731.578 277.511 732.408 277.983 733.113C278.454 733.819 279.124 734.369 279.908 734.693C280.692 735.018 281.555 735.103 282.387 734.938C283.219 734.772 283.983 734.363 284.583 733.763C285.183 733.163 285.592 732.399 285.757 731.567C285.923 730.735 285.838 729.872 285.513 729.088C285.189 728.304 284.639 727.634 283.933 727.163C283.228 726.692 282.398 726.44 281.55 726.44C280.987 726.44 280.429 726.551 279.908 726.767C279.388 726.982 278.915 727.298 278.516 727.696C278.118 728.095 277.802 728.568 277.586 729.088C277.371 729.609 277.26 730.167 277.26 730.73Z"
      fill="white"
    />
    <path
      d="M248.13 730.73C248.128 731.581 248.379 732.414 248.85 733.123C249.322 733.831 249.994 734.384 250.78 734.711C251.566 735.037 252.431 735.123 253.266 734.958C254.102 734.792 254.869 734.382 255.471 733.78C256.073 733.179 256.482 732.411 256.648 731.576C256.813 730.741 256.727 729.876 256.401 729.09C256.074 728.304 255.521 727.632 254.813 727.16C254.104 726.689 253.271 726.438 252.42 726.44C251.857 726.44 251.299 726.551 250.778 726.767C250.258 726.982 249.785 727.298 249.386 727.696C248.988 728.095 248.672 728.568 248.457 729.088C248.241 729.609 248.13 730.167 248.13 730.73Z"
      fill="white"
    />
    <path
      d="M218.97 730.73C218.97 731.578 219.221 732.408 219.693 733.113C220.164 733.819 220.834 734.369 221.618 734.693C222.402 735.018 223.265 735.103 224.097 734.938C224.929 734.772 225.693 734.363 226.293 733.763C226.893 733.163 227.302 732.399 227.467 731.567C227.633 730.735 227.548 729.872 227.223 729.088C226.899 728.304 226.349 727.634 225.643 727.163C224.938 726.692 224.108 726.44 223.26 726.44C222.696 726.44 222.139 726.551 221.618 726.767C221.098 726.982 220.625 727.298 220.226 727.696C219.828 728.095 219.512 728.568 219.296 729.088C219.081 729.609 218.97 730.167 218.97 730.73Z"
      fill="white"
    />
    <path
      d="M189.82 730.73C189.818 731.581 190.069 732.414 190.54 733.123C191.012 733.831 191.684 734.384 192.47 734.711C193.256 735.037 194.121 735.123 194.956 734.958C195.791 734.792 196.558 734.382 197.16 733.78C197.762 733.179 198.172 732.411 198.338 731.576C198.503 730.741 198.417 729.876 198.091 729.09C197.764 728.304 197.211 727.632 196.503 727.16C195.794 726.689 194.961 726.438 194.11 726.44C193.547 726.44 192.989 726.551 192.468 726.767C191.948 726.982 191.475 727.298 191.076 727.696C190.678 728.095 190.362 728.568 190.146 729.088C189.931 729.609 189.82 730.167 189.82 730.73Z"
      fill="white"
    />
    <path
      d="M160.68 730.73C160.68 731.578 160.931 732.408 161.403 733.113C161.874 733.819 162.544 734.369 163.328 734.693C164.112 735.018 164.974 735.103 165.807 734.938C166.639 734.772 167.403 734.363 168.003 733.763C168.603 733.163 169.012 732.399 169.177 731.567C169.343 730.735 169.258 729.872 168.933 729.088C168.608 728.304 168.059 727.634 167.353 727.163C166.648 726.692 165.818 726.44 164.97 726.44C164.406 726.44 163.848 726.551 163.328 726.767C162.807 726.982 162.335 727.298 161.936 727.696C161.538 728.095 161.222 728.568 161.006 729.088C160.791 729.609 160.68 730.167 160.68 730.73Z"
      fill="white"
    />
    <path
      d="M131.53 730.73C131.528 731.581 131.779 732.414 132.25 733.123C132.722 733.831 133.394 734.384 134.18 734.711C134.966 735.037 135.831 735.123 136.666 734.958C137.501 734.792 138.269 734.382 138.87 733.78C139.472 733.179 139.882 732.411 140.048 731.576C140.213 730.741 140.127 729.876 139.801 729.09C139.474 728.304 138.921 727.632 138.213 727.16C137.504 726.689 136.671 726.438 135.82 726.44C134.682 726.44 133.591 726.892 132.786 727.696C131.982 728.501 131.53 729.592 131.53 730.73Z"
      fill="white"
    />
    <path
      d="M1393.83 23.0002L1401.07 30.2402L1393.83 37.4803L1386.59 30.2402L1393.83 23.0002Z"
      fill="#CCF5DF"
    />
    <path
      d="M1373.55 66.447L1393.1 85.9961L1373.55 105.545L1354 85.9961L1373.55 66.447Z"
      fill="#97D3D3"
    />
    <path
      d="M1028.5 49C1050.32 49 1068 31.3152 1068 9.5C1068 -12.3152 1050.32 -30 1028.5 -30C1006.68 -30 989 -12.3152 989 9.5C989 31.3152 1006.68 49 1028.5 49Z"
      fill="#97D3D3"
    />
    <path
      d="M1382 817C1431.71 817 1472 776.706 1472 727C1472 677.294 1431.71 637 1382 637C1332.29 637 1292 677.294 1292 727C1292 776.706 1332.29 817 1382 817Z"
      fill="#97D3D3"
    />
    <path
      d="M1130.6 20.3C1130.6 21.1505 1130.35 21.9818 1129.88 22.689C1129.4 23.3961 1128.73 23.9472 1127.95 24.2727C1127.16 24.5981 1126.3 24.6833 1125.46 24.5174C1124.63 24.3515 1123.86 23.9419 1123.26 23.3406C1122.66 22.7392 1122.25 21.973 1122.08 21.1389C1121.92 20.3048 1122 19.4402 1122.33 18.6545C1122.65 17.8688 1123.2 17.1972 1123.91 16.7247C1124.62 16.2522 1125.45 16 1126.3 16C1126.87 15.9987 1127.42 16.109 1127.95 16.3246C1128.47 16.5403 1128.94 16.857 1129.34 17.2565C1129.74 17.6561 1130.06 18.1306 1130.28 18.6529C1130.49 19.1752 1130.6 19.735 1130.6 20.3Z"
      fill="#CCF5DF"
    />
    <path
      d="M1159.74 20.3C1159.74 21.1481 1159.48 21.9765 1159.01 22.6807C1158.54 23.3848 1157.87 23.9331 1157.08 24.2563C1156.3 24.5795 1155.44 24.663 1154.61 24.4963C1153.78 24.3297 1153.01 23.9203 1152.41 23.3199C1151.81 22.7196 1151.41 21.9552 1151.24 21.1233C1151.08 20.2914 1151.16 19.4293 1151.49 18.646C1151.81 17.8627 1152.36 17.1933 1153.07 16.7223C1153.77 16.2514 1154.6 16 1155.45 16C1156.01 16 1156.57 16.1113 1157.09 16.3275C1157.62 16.5437 1158.09 16.8606 1158.49 17.26C1158.89 17.6595 1159.2 18.1336 1159.42 18.6552C1159.63 19.1769 1159.74 19.7358 1159.74 20.3Z"
      fill="#CCF5DF"
    />
    <path
      d="M1188.87 20.3C1188.87 21.1509 1188.62 21.9827 1188.14 22.69C1187.67 23.3973 1187 23.9485 1186.21 24.2736C1185.43 24.5988 1184.56 24.6834 1183.73 24.5166C1182.89 24.3499 1182.13 23.9394 1181.53 23.337C1180.92 22.7347 1180.52 21.9675 1180.35 21.1327C1180.19 20.298 1180.27 19.4331 1180.6 18.6475C1180.93 17.862 1181.48 17.1911 1182.19 16.7198C1182.9 16.2485 1183.73 15.998 1184.58 16C1185.14 16 1185.7 16.1113 1186.22 16.3275C1186.75 16.5437 1187.22 16.8606 1187.62 17.2601C1188.02 17.6595 1188.33 18.1336 1188.55 18.6552C1188.76 19.1769 1188.87 19.7358 1188.87 20.3Z"
      fill="#CCF5DF"
    />
    <path
      d="M1218.03 20.3C1218.03 21.1481 1217.77 21.9765 1217.3 22.6807C1216.83 23.3848 1216.16 23.9331 1215.37 24.2563C1214.59 24.5795 1213.73 24.663 1212.9 24.4963C1212.07 24.3297 1211.3 23.9203 1210.7 23.3199C1210.1 22.7196 1209.7 21.9552 1209.53 21.1233C1209.37 20.2914 1209.45 19.4293 1209.78 18.646C1210.1 17.8627 1210.65 17.1933 1211.36 16.7223C1212.06 16.2514 1212.89 16 1213.74 16C1214.3 16 1214.86 16.1113 1215.38 16.3275C1215.91 16.5437 1216.38 16.8606 1216.78 17.26C1217.18 17.6595 1217.49 18.1336 1217.71 18.6552C1217.92 19.1769 1218.03 19.7358 1218.03 20.3Z"
      fill="#CCF5DF"
    />
    <path
      d="M1247.18 20.3C1247.18 21.1509 1246.93 21.9827 1246.45 22.69C1245.98 23.3973 1245.31 23.9485 1244.52 24.2736C1243.74 24.5988 1242.87 24.6834 1242.04 24.5166C1241.2 24.3499 1240.44 23.9394 1239.84 23.337C1239.24 22.7347 1238.83 21.9675 1238.66 21.1327C1238.5 20.298 1238.58 19.4331 1238.91 18.6475C1239.24 17.862 1239.79 17.1911 1240.5 16.7198C1241.21 16.2485 1242.04 15.998 1242.89 16C1243.45 16 1244.01 16.1113 1244.53 16.3275C1245.06 16.5437 1245.53 16.8606 1245.93 17.2601C1246.33 17.6595 1246.64 18.1336 1246.86 18.6552C1247.07 19.1769 1247.18 19.7358 1247.18 20.3Z"
      fill="#CCF5DF"
    />
    <path
      d="M1276.32 20.3C1276.32 21.1481 1276.07 21.9765 1275.59 22.6807C1275.12 23.3848 1274.45 23.9331 1273.67 24.2563C1272.88 24.5795 1272.02 24.663 1271.19 24.4963C1270.36 24.3297 1269.59 23.9203 1268.99 23.3199C1268.39 22.7196 1267.99 21.9552 1267.82 21.1233C1267.66 20.2914 1267.74 19.4293 1268.07 18.646C1268.39 17.8627 1268.94 17.1933 1269.65 16.7223C1270.35 16.2514 1271.18 16 1272.03 16C1272.59 16 1273.15 16.1113 1273.67 16.3275C1274.2 16.5437 1274.67 16.8606 1275.07 17.26C1275.47 17.6595 1275.78 18.1336 1276 18.6552C1276.21 19.1769 1276.32 19.7358 1276.32 20.3Z"
      fill="#CCF5DF"
    />
    <path
      d="M1305.47 20.3C1305.47 21.1509 1305.22 21.9827 1304.74 22.69C1304.27 23.3973 1303.6 23.9485 1302.81 24.2736C1302.03 24.5988 1301.16 24.6834 1300.33 24.5166C1299.49 24.3499 1298.73 23.9394 1298.13 23.337C1297.53 22.7347 1297.12 21.9675 1296.95 21.1327C1296.79 20.298 1296.87 19.4331 1297.2 18.6475C1297.53 17.862 1298.08 17.1911 1298.79 16.7198C1299.5 16.2485 1300.33 15.998 1301.18 16C1301.74 16 1302.3 16.1113 1302.82 16.3275C1303.35 16.5437 1303.82 16.8606 1304.22 17.2601C1304.62 17.6595 1304.93 18.1336 1305.15 18.6552C1305.36 19.1769 1305.47 19.7358 1305.47 20.3Z"
      fill="#CCF5DF"
    />
    <path
      d="M1130.6 49.4399C1130.6 50.2908 1130.35 51.1231 1129.88 51.8316C1129.41 52.54 1128.74 53.0927 1127.95 53.4197C1127.17 53.7467 1126.3 53.8333 1125.47 53.6685C1124.63 53.5037 1123.87 53.095 1123.26 52.494C1122.66 51.893 1122.25 51.1269 1122.08 50.2925C1121.92 49.4581 1122 48.593 1122.33 47.8067C1122.65 47.0204 1123.2 46.3482 1123.91 45.8753C1124.62 45.4024 1125.45 45.1499 1126.3 45.1499C1126.86 45.1486 1127.42 45.2586 1127.94 45.4736C1128.47 45.6886 1128.94 46.0044 1129.34 46.4029C1129.74 46.8014 1130.06 47.2748 1130.27 47.7959C1130.49 48.317 1130.6 48.8757 1130.6 49.4399Z"
      fill="#CCF5DF"
    />
    <path
      d="M1159.74 49.4399C1159.74 50.2884 1159.49 51.1178 1159.02 51.8233C1158.55 52.5288 1157.88 53.0787 1157.09 53.4034C1156.31 53.7281 1155.45 53.813 1154.61 53.6475C1153.78 53.4819 1153.02 53.0734 1152.42 52.4734C1151.82 51.8734 1151.41 51.109 1151.24 50.2768C1151.08 49.4447 1151.16 48.5821 1151.49 47.7982C1151.81 47.0143 1152.36 46.3443 1153.07 45.8729C1153.77 45.4015 1154.6 45.1499 1155.45 45.1499C1156.59 45.1499 1157.68 45.6019 1158.48 46.4064C1159.29 47.2109 1159.74 48.3021 1159.74 49.4399Z"
      fill="#CCF5DF"
    />
    <path
      d="M1188.87 49.4399C1188.87 50.2912 1188.62 51.124 1188.15 51.8326C1187.68 52.5413 1187.01 53.094 1186.22 53.4207C1185.43 53.7474 1184.57 53.8334 1183.73 53.6678C1182.9 53.5022 1182.13 53.0924 1181.53 52.4905C1180.93 51.8885 1180.52 51.1214 1180.35 50.2863C1180.19 49.4513 1180.27 48.5859 1180.6 47.7998C1180.93 47.0136 1181.48 46.3422 1182.19 45.8704C1182.9 45.3987 1183.73 45.1479 1184.58 45.1499C1185.72 45.1499 1186.81 45.6019 1187.61 46.4064C1188.42 47.211 1188.87 48.3021 1188.87 49.4399Z"
      fill="#CCF5DF"
    />
    <path
      d="M1218.03 49.4399C1218.03 50.2884 1217.78 51.1178 1217.31 51.8233C1216.84 52.5288 1216.17 53.0787 1215.38 53.4034C1214.6 53.7281 1213.74 53.813 1212.9 53.6475C1212.07 53.4819 1211.31 53.0734 1210.71 52.4734C1210.11 51.8734 1209.7 51.109 1209.53 50.2768C1209.37 49.4447 1209.45 48.5821 1209.78 47.7982C1210.1 47.0143 1210.65 46.3443 1211.36 45.8729C1212.06 45.4015 1212.89 45.1499 1213.74 45.1499C1214.88 45.1499 1215.97 45.6019 1216.77 46.4064C1217.58 47.2109 1218.03 48.3021 1218.03 49.4399Z"
      fill="#CCF5DF"
    />
    <path
      d="M1247.18 49.44C1247.19 50.2913 1246.94 51.1252 1246.47 51.836C1246 52.5468 1245.33 53.1026 1244.55 53.433C1243.76 53.7634 1242.9 53.8534 1242.06 53.6917C1241.23 53.53 1240.46 53.1238 1239.85 52.5247C1239.25 51.9255 1238.84 51.1603 1238.67 50.3261C1238.5 49.4918 1238.58 48.626 1238.9 47.8383C1239.22 47.0507 1239.77 46.3767 1240.48 45.9016C1241.19 45.4266 1242.02 45.172 1242.87 45.17C1243.43 45.1673 1243.99 45.2757 1244.51 45.4889C1245.03 45.702 1245.51 46.0158 1245.91 46.4123C1246.31 46.8088 1246.63 47.2803 1246.85 47.7998C1247.06 48.3193 1247.18 48.8766 1247.18 49.44Z"
      fill="#CCF5DF"
    />
    <path
      d="M1276.32 49.4399C1276.32 50.2884 1276.07 51.1178 1275.6 51.8233C1275.13 52.5288 1274.46 53.0787 1273.67 53.4034C1272.89 53.7281 1272.03 53.813 1271.19 53.6475C1270.36 53.4819 1269.6 53.0734 1269 52.4734C1268.4 51.8734 1267.99 51.109 1267.82 50.2768C1267.66 49.4447 1267.74 48.5821 1268.07 47.7982C1268.39 47.0143 1268.94 46.3443 1269.65 45.8729C1270.35 45.4015 1271.18 45.1499 1272.03 45.1499C1273.17 45.1499 1274.26 45.6019 1275.06 46.4064C1275.87 47.2109 1276.32 48.3021 1276.32 49.4399Z"
      fill="#CCF5DF"
    />
    <path
      d="M1305.47 49.4399C1305.47 50.2912 1305.22 51.124 1304.75 51.8326C1304.28 52.5413 1303.61 53.094 1302.82 53.4207C1302.03 53.7474 1301.17 53.8334 1300.33 53.6678C1299.5 53.5022 1298.73 53.0924 1298.13 52.4905C1297.53 51.8885 1297.12 51.1214 1296.95 50.2863C1296.79 49.4513 1296.87 48.5859 1297.2 47.7998C1297.53 47.0136 1298.08 46.3422 1298.79 45.8704C1299.5 45.3987 1300.33 45.1479 1301.18 45.1499C1302.32 45.1499 1303.41 45.6019 1304.21 46.4064C1305.02 47.211 1305.47 48.3021 1305.47 49.4399Z"
      fill="#CCF5DF"
    />
    <path
      d="M1130.6 78.5901C1130.6 79.4405 1130.35 80.2719 1129.88 80.979C1129.4 81.6861 1128.73 82.2373 1127.95 82.5627C1127.16 82.8882 1126.3 82.9734 1125.46 82.8074C1124.63 82.6415 1123.86 82.232 1123.26 81.6306C1122.66 81.0293 1122.25 80.2631 1122.08 79.4289C1121.92 78.5948 1122 77.7303 1122.33 76.9445C1122.65 76.1588 1123.2 75.4872 1123.91 75.0147C1124.62 74.5422 1125.45 74.2901 1126.3 74.2901C1126.87 74.2887 1127.42 74.3991 1127.95 74.6147C1128.47 74.8303 1128.94 75.147 1129.34 75.5466C1129.74 75.9461 1130.06 76.4206 1130.28 76.9429C1130.49 77.4652 1130.6 78.025 1130.6 78.5901Z"
      fill="#CCF5DF"
    />
    <path
      d="M1159.74 78.5901C1159.74 79.4381 1159.48 80.2665 1159.01 80.9707C1158.54 81.6749 1157.87 82.2232 1157.08 82.5464C1156.3 82.8695 1155.44 82.953 1154.61 82.7864C1153.78 82.6197 1153.01 82.2103 1152.41 81.61C1151.81 81.0096 1151.41 80.2452 1151.24 79.4133C1151.08 78.5814 1151.16 77.7193 1151.49 76.936C1151.81 76.1527 1152.36 75.4833 1153.07 75.0124C1153.77 74.5414 1154.6 74.29 1155.45 74.29C1156.01 74.29 1156.57 74.4013 1157.09 74.6176C1157.62 74.8338 1158.09 75.1507 1158.49 75.5501C1158.89 75.9495 1159.2 76.4236 1159.42 76.9453C1159.63 77.4669 1159.74 78.0258 1159.74 78.5901Z"
      fill="#CCF5DF"
    />
    <path
      d="M1188.87 78.5901C1188.87 79.441 1188.62 80.2727 1188.14 80.9801C1187.67 81.6874 1187 82.2385 1186.21 82.5637C1185.43 82.8888 1184.56 82.9734 1183.73 82.8067C1182.89 82.64 1182.13 82.2294 1181.53 81.6271C1180.92 81.0247 1180.52 80.2576 1180.35 79.4228C1180.19 78.588 1180.27 77.7231 1180.6 76.9376C1180.93 76.152 1181.48 75.4812 1182.19 75.0099C1182.9 74.5386 1183.73 74.2881 1184.58 74.2901C1185.14 74.29 1185.7 74.4013 1186.22 74.6176C1186.75 74.8338 1187.22 75.1507 1187.62 75.5501C1188.02 75.9495 1188.33 76.4236 1188.55 76.9453C1188.76 77.4669 1188.87 78.0259 1188.87 78.5901Z"
      fill="#CCF5DF"
    />
    <path
      d="M1218.03 78.5901C1218.03 79.4381 1217.77 80.2665 1217.3 80.9707C1216.83 81.6749 1216.16 82.2232 1215.37 82.5464C1214.59 82.8695 1213.73 82.953 1212.9 82.7864C1212.07 82.6197 1211.3 82.2103 1210.7 81.61C1210.1 81.0096 1209.7 80.2452 1209.53 79.4133C1209.37 78.5814 1209.45 77.7193 1209.78 76.936C1210.1 76.1527 1210.65 75.4833 1211.36 75.0124C1212.06 74.5414 1212.89 74.29 1213.74 74.29C1214.3 74.29 1214.86 74.4013 1215.38 74.6176C1215.91 74.8338 1216.38 75.1507 1216.78 75.5501C1217.18 75.9495 1217.49 76.4236 1217.71 76.9453C1217.92 77.4669 1218.03 78.0258 1218.03 78.5901Z"
      fill="#CCF5DF"
    />
    <path
      d="M1242.88 82.8798C1245.25 82.8798 1247.17 80.9591 1247.17 78.5898C1247.17 76.2205 1245.25 74.2998 1242.88 74.2998C1240.51 74.2998 1238.59 76.2205 1238.59 78.5898C1238.59 80.9591 1240.51 82.8798 1242.88 82.8798Z"
      fill="#CCF5DF"
    />
    <path
      d="M1276.32 78.5901C1276.32 79.4381 1276.07 80.2665 1275.59 80.9707C1275.12 81.6749 1274.45 82.2232 1273.67 82.5464C1272.88 82.8695 1272.02 82.953 1271.19 82.7864C1270.36 82.6197 1269.59 82.2103 1268.99 81.61C1268.39 81.0096 1267.99 80.2452 1267.82 79.4133C1267.66 78.5814 1267.74 77.7193 1268.07 76.936C1268.39 76.1527 1268.94 75.4833 1269.65 75.0124C1270.35 74.5414 1271.18 74.29 1272.03 74.29C1272.59 74.29 1273.15 74.4013 1273.67 74.6176C1274.2 74.8338 1274.67 75.1507 1275.07 75.5501C1275.47 75.9495 1275.78 76.4236 1276 76.9453C1276.21 77.4669 1276.32 78.0258 1276.32 78.5901Z"
      fill="#CCF5DF"
    />
    <path
      d="M1305.47 78.5901C1305.47 79.441 1305.22 80.2727 1304.74 80.9801C1304.27 81.6874 1303.6 82.2385 1302.81 82.5637C1302.03 82.8888 1301.16 82.9734 1300.33 82.8067C1299.49 82.64 1298.73 82.2294 1298.13 81.6271C1297.53 81.0247 1297.12 80.2576 1296.95 79.4228C1296.79 78.588 1296.87 77.7231 1297.2 76.9376C1297.53 76.152 1298.08 75.4812 1298.79 75.0099C1299.5 74.5386 1300.33 74.2881 1301.18 74.2901C1301.74 74.29 1302.3 74.4013 1302.82 74.6176C1303.35 74.8338 1303.82 75.1507 1304.22 75.5501C1304.62 75.9495 1304.93 76.4236 1305.15 76.9453C1305.36 77.4669 1305.47 78.0259 1305.47 78.5901Z"
      fill="#CCF5DF"
    />
    <path
      d="M1130.6 107.73C1130.6 108.581 1130.35 109.413 1129.88 110.122C1129.41 110.83 1128.74 111.383 1127.95 111.71C1127.17 112.037 1126.3 112.123 1125.47 111.959C1124.63 111.794 1123.87 111.385 1123.26 110.784C1122.66 110.183 1122.25 109.417 1122.08 108.583C1121.92 107.748 1122 106.883 1122.33 106.097C1122.65 105.31 1123.2 104.638 1123.91 104.165C1124.62 103.692 1125.45 103.44 1126.3 103.44C1126.86 103.439 1127.42 103.549 1127.94 103.764C1128.47 103.979 1128.94 104.294 1129.34 104.693C1129.74 105.091 1130.06 105.565 1130.27 106.086C1130.49 106.607 1130.6 107.166 1130.6 107.73Z"
      fill="#CCF5DF"
    />
    <path
      d="M1159.74 107.73C1159.74 108.578 1159.49 109.408 1159.02 110.113C1158.55 110.819 1157.88 111.369 1157.09 111.693C1156.31 112.018 1155.45 112.103 1154.61 111.938C1153.78 111.772 1153.02 111.363 1152.42 110.763C1151.82 110.163 1151.41 109.399 1151.24 108.567C1151.08 107.735 1151.16 106.872 1151.49 106.088C1151.81 105.304 1152.36 104.634 1153.07 104.163C1153.77 103.692 1154.6 103.44 1155.45 103.44C1156.01 103.44 1156.57 103.551 1157.09 103.767C1157.61 103.982 1158.09 104.298 1158.48 104.696C1158.88 105.095 1159.2 105.568 1159.41 106.088C1159.63 106.609 1159.74 107.167 1159.74 107.73Z"
      fill="#CCF5DF"
    />
    <path
      d="M1188.87 107.73C1188.87 108.581 1188.62 109.414 1188.15 110.123C1187.68 110.831 1187.01 111.384 1186.22 111.711C1185.43 112.037 1184.57 112.123 1183.73 111.958C1182.9 111.792 1182.13 111.382 1181.53 110.78C1180.93 110.179 1180.52 109.411 1180.35 108.576C1180.19 107.741 1180.27 106.876 1180.6 106.09C1180.93 105.304 1181.48 104.632 1182.19 104.16C1182.9 103.689 1183.73 103.438 1184.58 103.44C1185.14 103.44 1185.7 103.551 1186.22 103.767C1186.74 103.982 1187.22 104.298 1187.61 104.696C1188.01 105.095 1188.33 105.568 1188.54 106.088C1188.76 106.609 1188.87 107.167 1188.87 107.73Z"
      fill="#CCF5DF"
    />
    <path
      d="M1218.03 107.73C1218.03 108.578 1217.78 109.408 1217.31 110.113C1216.84 110.819 1216.17 111.369 1215.38 111.693C1214.6 112.018 1213.74 112.103 1212.9 111.938C1212.07 111.772 1211.31 111.363 1210.71 110.763C1210.11 110.163 1209.7 109.399 1209.53 108.567C1209.37 107.735 1209.45 106.872 1209.78 106.088C1210.1 105.304 1210.65 104.634 1211.36 104.163C1212.06 103.692 1212.89 103.44 1213.74 103.44C1214.3 103.44 1214.86 103.551 1215.38 103.767C1215.9 103.982 1216.38 104.298 1216.77 104.696C1217.17 105.095 1217.49 105.568 1217.7 106.088C1217.92 106.609 1218.03 107.167 1218.03 107.73Z"
      fill="#CCF5DF"
    />
    <path
      d="M1247.18 107.73C1247.18 108.581 1246.93 109.414 1246.46 110.123C1245.99 110.831 1245.32 111.384 1244.53 111.711C1243.74 112.037 1242.88 112.123 1242.04 111.958C1241.21 111.792 1240.44 111.382 1239.84 110.78C1239.24 110.179 1238.83 109.411 1238.66 108.576C1238.5 107.741 1238.58 106.876 1238.91 106.09C1239.24 105.304 1239.79 104.632 1240.5 104.16C1241.21 103.689 1242.04 103.438 1242.89 103.44C1243.45 103.44 1244.01 103.551 1244.53 103.767C1245.05 103.982 1245.53 104.298 1245.92 104.696C1246.32 105.095 1246.64 105.568 1246.85 106.088C1247.07 106.609 1247.18 107.167 1247.18 107.73Z"
      fill="#CCF5DF"
    />
    <path
      d="M1276.32 107.73C1276.32 108.578 1276.07 109.408 1275.6 110.113C1275.13 110.819 1274.46 111.369 1273.67 111.693C1272.89 112.018 1272.03 112.103 1271.19 111.938C1270.36 111.772 1269.6 111.363 1269 110.763C1268.4 110.163 1267.99 109.399 1267.82 108.567C1267.66 107.735 1267.74 106.872 1268.07 106.088C1268.39 105.304 1268.94 104.634 1269.65 104.163C1270.35 103.692 1271.18 103.44 1272.03 103.44C1272.59 103.44 1273.15 103.551 1273.67 103.767C1274.19 103.982 1274.67 104.298 1275.06 104.696C1275.46 105.095 1275.78 105.568 1275.99 106.088C1276.21 106.609 1276.32 107.167 1276.32 107.73Z"
      fill="#CCF5DF"
    />
    <path
      d="M1305.47 107.73C1305.47 108.581 1305.22 109.414 1304.75 110.123C1304.28 110.831 1303.61 111.384 1302.82 111.711C1302.03 112.037 1301.17 112.123 1300.33 111.958C1299.5 111.792 1298.73 111.382 1298.13 110.78C1297.53 110.179 1297.12 109.411 1296.95 108.576C1296.79 107.741 1296.87 106.876 1297.2 106.09C1297.53 105.304 1298.08 104.632 1298.79 104.16C1299.5 103.689 1300.33 103.438 1301.18 103.44C1302.32 103.44 1303.41 103.892 1304.21 104.696C1305.02 105.501 1305.47 106.592 1305.47 107.73Z"
      fill="#CCF5DF"
    />
    <path
      d="M1130.6 136.88C1130.6 137.731 1130.35 138.562 1129.88 139.269C1129.4 139.976 1128.73 140.527 1127.95 140.853C1127.16 141.178 1126.3 141.263 1125.46 141.097C1124.63 140.932 1123.86 140.522 1123.26 139.921C1122.66 139.319 1122.25 138.553 1122.08 137.719C1121.92 136.885 1122 136.02 1122.33 135.235C1122.65 134.449 1123.2 133.777 1123.91 133.305C1124.62 132.832 1125.45 132.58 1126.3 132.58C1126.87 132.579 1127.42 132.689 1127.95 132.905C1128.47 133.12 1128.94 133.437 1129.34 133.837C1129.74 134.236 1130.06 134.711 1130.28 135.233C1130.49 135.755 1130.6 136.315 1130.6 136.88Z"
      fill="#CCF5DF"
    />
    <path
      d="M1159.74 136.88C1159.74 137.728 1159.48 138.557 1159.01 139.261C1158.54 139.965 1157.87 140.513 1157.08 140.836C1156.3 141.16 1155.44 141.243 1154.61 141.076C1153.78 140.91 1153.01 140.5 1152.41 139.9C1151.81 139.3 1151.41 138.535 1151.24 137.703C1151.08 136.871 1151.16 136.009 1151.49 135.226C1151.81 134.443 1152.36 133.773 1153.07 133.302C1153.77 132.831 1154.6 132.58 1155.45 132.58C1156.01 132.58 1156.57 132.691 1157.09 132.908C1157.62 133.124 1158.09 133.441 1158.49 133.84C1158.89 134.24 1159.2 134.714 1159.42 135.235C1159.63 135.757 1159.74 136.316 1159.74 136.88Z"
      fill="#CCF5DF"
    />
    <path
      d="M1188.87 136.88C1188.87 137.731 1188.62 138.563 1188.14 139.27C1187.67 139.977 1187 140.529 1186.21 140.854C1185.43 141.179 1184.56 141.263 1183.73 141.097C1182.89 140.93 1182.13 140.519 1181.53 139.917C1180.92 139.315 1180.52 138.548 1180.35 137.713C1180.19 136.878 1180.27 136.013 1180.6 135.228C1180.93 134.442 1181.48 133.771 1182.19 133.3C1182.9 132.829 1183.73 132.578 1184.58 132.58C1185.14 132.58 1185.7 132.691 1186.22 132.908C1186.75 133.124 1187.22 133.441 1187.62 133.84C1188.02 134.24 1188.33 134.714 1188.55 135.235C1188.76 135.757 1188.87 136.316 1188.87 136.88Z"
      fill="#CCF5DF"
    />
    <path
      d="M1218.03 136.88C1218.03 137.728 1217.77 138.557 1217.3 139.261C1216.83 139.965 1216.16 140.513 1215.37 140.836C1214.59 141.16 1213.73 141.243 1212.9 141.076C1212.07 140.91 1211.3 140.5 1210.7 139.9C1210.1 139.3 1209.7 138.535 1209.53 137.703C1209.37 136.871 1209.45 136.009 1209.78 135.226C1210.1 134.443 1210.65 133.773 1211.36 133.302C1212.06 132.831 1212.89 132.58 1213.74 132.58C1214.3 132.58 1214.86 132.691 1215.38 132.908C1215.91 133.124 1216.38 133.441 1216.78 133.84C1217.18 134.24 1217.49 134.714 1217.71 135.235C1217.92 135.757 1218.03 136.316 1218.03 136.88Z"
      fill="#CCF5DF"
    />
    <path
      d="M1247.18 136.88C1247.18 137.731 1246.93 138.563 1246.45 139.27C1245.98 139.977 1245.31 140.529 1244.52 140.854C1243.74 141.179 1242.87 141.263 1242.04 141.097C1241.2 140.93 1240.44 140.519 1239.84 139.917C1239.24 139.315 1238.83 138.548 1238.66 137.713C1238.5 136.878 1238.58 136.013 1238.91 135.228C1239.24 134.442 1239.79 133.771 1240.5 133.3C1241.21 132.829 1242.04 132.578 1242.89 132.58C1243.45 132.58 1244.01 132.691 1244.53 132.908C1245.06 133.124 1245.53 133.441 1245.93 133.84C1246.33 134.24 1246.64 134.714 1246.86 135.235C1247.07 135.757 1247.18 136.316 1247.18 136.88Z"
      fill="#CCF5DF"
    />
    <path
      d="M1276.32 136.88C1276.32 137.728 1276.07 138.557 1275.59 139.261C1275.12 139.965 1274.45 140.513 1273.67 140.836C1272.88 141.16 1272.02 141.243 1271.19 141.076C1270.36 140.91 1269.59 140.5 1268.99 139.9C1268.39 139.3 1267.99 138.535 1267.82 137.703C1267.66 136.871 1267.74 136.009 1268.07 135.226C1268.39 134.443 1268.94 133.773 1269.65 133.302C1270.35 132.831 1271.18 132.58 1272.03 132.58C1272.59 132.58 1273.15 132.691 1273.67 132.908C1274.2 133.124 1274.67 133.441 1275.07 133.84C1275.47 134.24 1275.78 134.714 1276 135.235C1276.21 135.757 1276.32 136.316 1276.32 136.88Z"
      fill="#CCF5DF"
    />
    <path
      d="M1305.47 136.88C1305.47 137.731 1305.22 138.563 1304.74 139.27C1304.27 139.977 1303.6 140.529 1302.81 140.854C1302.03 141.179 1301.16 141.263 1300.33 141.097C1299.49 140.93 1298.73 140.519 1298.13 139.917C1297.53 139.315 1297.12 138.548 1296.95 137.713C1296.79 136.878 1296.87 136.013 1297.2 135.228C1297.53 134.442 1298.08 133.771 1298.79 133.3C1299.5 132.829 1300.33 132.578 1301.18 132.58C1301.74 132.58 1302.3 132.691 1302.82 132.908C1303.35 133.124 1303.82 133.441 1304.22 133.84C1304.62 134.24 1304.93 134.714 1305.15 135.235C1305.36 135.757 1305.47 136.316 1305.47 136.88Z"
      fill="#CCF5DF"
    />
    <path
      d="M1268.04 366.8H1265.66V374.31H1258.16V376.68H1265.66V384.19H1268.04V376.68H1275.54V374.31H1268.04V366.8Z"
      fill="#EAF1F1"
    />
    <path
      d="M1314 366.8H1311.63V374.31H1304.12V376.68H1311.63V384.19H1314V376.68H1321.51V374.31H1314V366.8Z"
      fill="#EAF1F1"
    />
    <path
      d="M1359.96 366.8H1357.59V374.31H1350.08V376.68H1357.59V384.19H1359.96V376.68H1367.47V374.31H1359.96V366.8Z"
      fill="#EAF1F1"
    />
    <path
      d="M1405.92 374.31V366.8H1403.55V374.31H1396.04V376.68H1403.55V384.19H1405.92V376.68H1413.43V374.31H1405.92Z"
      fill="#EAF1F1"
    />
    <path
      d="M1268.04 411.09H1265.66V418.59H1258.16V420.96H1265.66V428.47H1268.04V420.96H1275.54V418.59H1268.04V411.09Z"
      fill="#EAF1F1"
    />
    <path
      d="M1314 411.09H1311.63V418.59H1304.12V420.96H1311.63V428.47H1314V420.96H1321.51V418.59H1314V411.09Z"
      fill="#EAF1F1"
    />
    <path
      d="M1359.96 411.09H1357.59V418.59H1350.08V420.96H1357.59V428.47H1359.96V420.96H1367.47V418.59H1359.96V411.09Z"
      fill="#EAF1F1"
    />
    <path
      d="M1405.92 411.09H1403.55V418.59H1396.04V420.96H1403.55V428.47H1405.92V420.96H1413.43V418.59H1405.92V411.09Z"
      fill="#EAF1F1"
    />
    <path
      d="M1268.04 455.37H1265.66V462.88H1258.16V465.25H1265.66V472.76H1268.04V465.25H1275.54V462.88H1268.04V455.37Z"
      fill="#EAF1F1"
    />
    <path
      d="M1314 455.37H1311.63V462.88H1304.12V465.25H1311.63V472.76H1314V465.25H1321.51V462.88H1314V455.37Z"
      fill="#EAF1F1"
    />
    <path
      d="M1359.96 455.37H1357.59V462.88H1350.08V465.25H1357.59V472.76H1359.96V465.25H1367.47V462.88H1359.96V455.37Z"
      fill="#EAF1F1"
    />
    <path
      d="M1405.92 455.37H1403.55V462.88H1396.04V465.25H1403.55V472.76H1405.92V465.25H1413.43V462.88H1405.92V455.37Z"
      fill="#EAF1F1"
    />
  </g>
  <defs>
    <clipPath id="clip0">
      <rect width="1440" height="742" fill="white" />
    </clipPath>
  </defs>
</svg>
